<svg width="490" height="430" viewBox="0 0 490 430" fill="none" xmlns="http://www.w3.org/2000/svg">
<path opacity="0.5" d="M229.38 389.934C328.913 389.934 409.601 387.012 409.601 383.409C409.601 379.805 328.913 376.884 229.38 376.884C129.846 376.884 49.1582 379.805 49.1582 383.409C49.1582 387.012 129.846 389.934 229.38 389.934Z" fill="#D5ECFF"/>
<mask id="mask0_523_2710" style="mask-type:alpha" maskUnits="userSpaceOnUse" x="237" y="358" width="45" height="26">
<path fill-rule="evenodd" clip-rule="evenodd" d="M281.898 358.241H237.263V383.31H281.898V358.241Z" fill="white"/>
</mask>
<g mask="url(#mask0_523_2710)">
<path fill-rule="evenodd" clip-rule="evenodd" d="M242.408 359.223C242.408 359.223 243.355 366.395 240.784 370.861C238.212 375.327 234.694 381.282 240.107 381.417C245.52 381.552 254.723 380.605 267.038 382.5C279.353 384.394 283.684 382.77 281.248 379.658C278.812 376.545 259.55 373.011 258.698 365.87C257.878 359.003 259.553 358.241 259.553 358.241L242.408 359.223Z" fill="#C26E5E"/>
</g>
<path fill-rule="evenodd" clip-rule="evenodd" d="M170.128 355.911C170.128 355.911 171.076 363.084 168.504 367.55C165.933 372.015 162.415 377.97 167.828 378.105C173.241 378.241 182.444 377.293 194.759 379.188C207.074 381.083 211.404 379.459 208.968 376.346C206.532 373.234 184.473 368.497 186.909 361.73L189.345 354.964L170.128 355.911Z" fill="#C26E5E"/>
<path fill-rule="evenodd" clip-rule="evenodd" d="M262.441 313.454C262.884 332.49 263.105 359.717 263.105 359.717L241.884 360.538C241.884 360.538 237.456 361.759 234.708 308.472C234.351 301.562 220.547 250.474 220.989 256.536C221.502 263.55 188.681 357 188.681 357L169.694 356.869C186.748 257.788 195.275 208.248 195.275 208.248H244.436C244.436 208.248 261.999 294.417 262.441 313.454Z" fill="#56ACF6"/>
<path d="M224.134 239.726L220.441 256.415L221.539 256.658L225.232 239.969L224.134 239.726Z" fill="#204EB2"/>
<path fill-rule="evenodd" clip-rule="evenodd" d="M213.833 134.676C213.833 134.676 213.418 143.805 208.092 147.028C203.26 149.952 213.497 166.919 224.509 165.907C230.538 165.353 231.95 148.868 231.95 148.868C231.95 148.868 227.083 147.928 228.881 140.505L213.833 134.676Z" fill="#C26E5E"/>
<path fill-rule="evenodd" clip-rule="evenodd" d="M222.651 143.958C215.512 143.095 210.359 138.401 209.638 130.614C207.563 130.944 207.073 125.537 207.651 123.799C208.23 122.06 210.118 123.077 210.118 123.077C210.223 122.802 210.312 122.514 210.385 122.213C213.504 109.421 222.238 109.929 222.238 109.929C238.289 110.765 234.528 127.151 233.611 131.499C232.694 135.846 229.552 144.792 222.651 143.958Z" fill="#C26E5E"/>
<path fill-rule="evenodd" clip-rule="evenodd" d="M174.601 174.724C161.89 194.861 157.88 207.079 162.571 211.378C167.262 215.676 176.211 210.447 189.418 195.691C188.737 192.396 186.98 188.801 184.146 184.906C181.313 181.011 178.131 177.617 174.601 174.724Z" fill="#C26E5E"/>
<path fill-rule="evenodd" clip-rule="evenodd" d="M254.71 189.031L245.432 187.951C245.432 187.951 247.806 219.887 246.914 219.887C246.435 219.887 235.29 225.929 219.672 225.929C207.674 225.929 192.957 221.961 192.335 221.928C192.259 221.923 192.185 221.871 192.114 221.776C192.314 219.573 192.473 215.678 192.633 211.378C192.746 208.361 192.861 205.144 192.992 202.173C193.115 199.409 193.252 196.858 193.418 194.875C194.138 186.23 193.639 178.34 193.639 178.34L190.087 187.982L167.564 179.776C167.564 179.776 175.085 168.815 184.051 159.282C192.946 149.823 207.213 147.424 207.436 147.388C207.437 147.387 207.438 147.387 207.438 147.387C207.438 147.387 206.637 160.436 220.134 161.439C231.355 162.272 231.937 148.822 231.937 148.822C231.937 148.822 245.054 152.247 248.817 155.456C252.58 158.666 269.181 180.579 269.181 181.133C269.181 181.686 254.71 189.031 254.71 189.031Z" fill="#F9C818"/>
<path fill-rule="evenodd" clip-rule="evenodd" d="M192.992 202.173C192.861 205.144 192.746 208.36 192.633 211.377C192.608 209.333 192.689 206.394 192.992 202.173Z" fill="#F9C818"/>
<path fill-rule="evenodd" clip-rule="evenodd" d="M239.63 192.788L227.831 193.747C227.12 193.804 226.497 193.275 226.439 192.564L224.553 169.362C224.495 168.651 225.025 168.028 225.736 167.97L237.535 167.011C238.246 166.953 238.869 167.483 238.927 168.194L240.813 191.395C240.87 192.106 240.341 192.73 239.63 192.788Z" fill="#204EB2"/>
<path fill-rule="evenodd" clip-rule="evenodd" d="M240.832 192.144L228.991 193.107C228.292 193.164 227.678 192.643 227.622 191.943L225.801 169.545C225.744 168.846 226.265 168.232 226.965 168.176L238.806 167.213C239.505 167.156 240.118 167.677 240.175 168.377L241.996 190.775C242.052 191.475 241.531 192.088 240.832 192.144Z" fill="#1F9BEB"/>
<path fill-rule="evenodd" clip-rule="evenodd" d="M238.841 169.767C238.896 170.439 238.395 171.028 237.724 171.082C237.052 171.137 236.463 170.637 236.408 169.965C236.354 169.293 236.854 168.704 237.526 168.65C238.198 168.595 238.787 169.095 238.841 169.767Z" fill="#204EB2"/>
<path fill-rule="evenodd" clip-rule="evenodd" d="M236.504 191.326C236.504 191.326 230.587 192.616 230.549 190.568C230.549 190.568 234.57 188.899 235.48 188.975C236.39 189.051 240.601 189.544 240.601 189.544L235.404 186.965L230.246 188.558C230.246 188.558 229.07 188.633 228.539 187.799C228.008 186.965 228.615 186.471 228.615 186.471L235.366 184.234C235.366 184.234 235.594 183.513 233.887 183.437C232.18 183.361 228.425 183.096 228.425 183.096C228.425 183.096 227.591 182.375 227.97 181.085C228.349 179.796 230.473 180.251 230.473 180.251C230.473 180.251 229.298 179.113 231.08 177.861C231.08 177.861 236.542 178.013 238.552 179.265C240.563 180.516 254.323 188.966 254.323 188.966L265.034 183.34C278.59 199.933 282.186 209.764 275.823 212.832C269.46 215.9 256.354 208.732 236.504 191.326Z" fill="#C26E5E"/>
<path fill-rule="evenodd" clip-rule="evenodd" d="M242.447 183.867L237.069 180.819L230.373 180.102L230.421 179.654L237.164 180.377C237.194 180.38 237.224 180.389 237.251 180.405L242.669 183.475L242.447 183.867Z" fill="black"/>
<path fill-rule="evenodd" clip-rule="evenodd" d="M264.033 195.116L251.18 187.039L251.419 186.658L264.272 194.735L264.033 195.116Z" fill="black"/>
<path fill-rule="evenodd" clip-rule="evenodd" d="M183.439 185.879L170.546 193.891L170.308 193.508L183.202 185.497L183.439 185.879Z" fill="black"/>
<path fill-rule="evenodd" clip-rule="evenodd" d="M242.009 186.338C241.975 186.315 238.606 184.034 237.727 183.667C237.057 183.388 235.716 183.898 235.257 184.118L235.062 183.712C235.137 183.676 236.909 182.839 237.9 183.252C238.82 183.635 242.122 185.87 242.262 185.965L242.009 186.338Z" fill="black"/>
<path fill-rule="evenodd" clip-rule="evenodd" d="M240.854 177.438L244.174 182.516L241.016 180.53L240.854 177.438Z" fill="#C26E5E"/>
<path fill-rule="evenodd" clip-rule="evenodd" d="M244.054 182.706L240.896 180.721L241.136 180.34L244.293 182.325L244.054 182.706Z" fill="black"/>
<path fill-rule="evenodd" clip-rule="evenodd" d="M199.966 195.087L196.013 195.01C191.85 194.928 188.541 191.487 188.623 187.324L188.87 174.724L206.85 175.076L206.582 188.726C206.512 192.31 203.55 195.158 199.966 195.087Z" fill="white"/>
<path fill-rule="evenodd" clip-rule="evenodd" d="M188.476 179.079C188.476 179.079 186.853 180.122 186.332 180.76C185.81 181.397 186.274 181.513 185.115 182.73C183.956 183.947 181.87 187.018 185.521 191.712C189.171 196.406 190.388 196 191.895 195.189C193.402 194.377 193.575 193.798 196.415 193.508C199.254 193.219 201.978 190.437 201.92 189.742L201.862 189.046C201.862 189.046 204.47 188.061 204.296 186.96C204.122 185.859 203.369 185.975 203.369 185.975C203.369 185.975 203.89 185.453 203.485 184.526C203.079 183.599 201.167 183.773 198.965 184.063C196.763 184.352 191.084 185.511 190.736 185.28C190.388 185.048 190.504 184.7 191.837 184.526C193.17 184.352 198.559 184.294 198.559 182.788C198.559 181.281 196.936 180.991 193.807 181.049C190.678 181.107 190.099 180.933 189.345 181.223L188.592 181.513L188.476 179.079Z" fill="#C26E5E"/>
<path fill-rule="evenodd" clip-rule="evenodd" d="M203.414 185.969C203.414 185.969 203.581 185.849 202.341 186.322C201.889 186.494 201.253 186.674 200.356 186.844C196.994 187.482 191.721 188.641 190.099 188.873C188.476 189.104 189.809 189.452 193.518 188.699C197.226 187.945 201.641 186.935 201.839 186.869C202.177 186.756 203.189 186.419 203.414 185.969Z" fill="black"/>
<path fill-rule="evenodd" clip-rule="evenodd" d="M200.644 189.395C200.644 189.395 197.901 190.356 196.551 190.694C195.118 191.052 194.038 191.539 193.748 191.075C193.459 190.611 193.111 190.496 193.111 190.496L192.647 191.017C192.647 191.017 192.726 191.594 192.473 191.654C192.023 191.763 191.141 191.944 191.141 191.944C191.141 191.944 191.151 192.269 193.851 191.706C194.521 191.567 195.764 191.369 196.551 191.144C197.275 190.937 199.891 190.264 200.239 189.974C200.586 189.684 200.644 189.395 200.644 189.395Z" fill="black"/>
<path fill-rule="evenodd" clip-rule="evenodd" d="M192.126 189.104C192.126 189.104 192.083 191.438 192.742 191.401C193.401 191.364 193.632 191.364 193.748 191.19C193.864 191.016 193.574 190.437 193.574 189.799C193.574 189.162 193.574 188.872 193.053 188.93C192.531 188.988 192.184 188.988 192.126 189.104Z" fill="#F9C818"/>
<path d="M227.443 125.17L227.871 125.307L227.829 125.442C227.796 125.551 227.758 125.676 227.718 125.815C227.602 126.213 227.486 126.639 227.378 127.078C227.258 127.566 227.155 128.04 227.075 128.487L227.052 128.619C226.856 129.756 226.829 130.623 227.003 131.09L227.014 131.117C228.012 133.587 226.656 134.84 223.809 133.963L223.723 133.936L223.86 133.507C226.424 134.328 227.452 133.403 226.596 131.285C226.361 130.702 226.397 129.713 226.632 128.407C226.714 127.95 226.819 127.468 226.941 126.971C227.039 126.575 227.142 126.189 227.246 125.825L227.285 125.69C227.309 125.609 227.332 125.533 227.353 125.461L227.408 125.281L227.443 125.17Z" fill="black"/>
<path d="M216.334 142.384L216.554 141.991L216.634 142.035L216.708 142.074C216.82 142.133 216.947 142.198 217.088 142.267L217.149 142.297C217.624 142.528 218.149 142.76 218.709 142.976C219.997 143.472 221.27 143.811 222.454 143.921C222.99 143.971 223.499 143.972 223.975 143.921L224.07 143.91L224.125 144.357C223.588 144.423 223.015 144.425 222.412 144.369C221.182 144.255 219.871 143.906 218.548 143.396C217.975 143.175 217.438 142.938 216.952 142.702L216.769 142.611C216.69 142.572 216.617 142.534 216.549 142.499L216.421 142.431L216.334 142.384Z" fill="black"/>
<path fill-rule="evenodd" clip-rule="evenodd" d="M224.529 137.487C222.406 137.487 220.805 136.515 220.73 136.468C220.572 136.37 220.523 136.162 220.621 136.004C220.719 135.845 220.927 135.796 221.085 135.894C221.117 135.914 222.997 137.043 225.264 136.768C225.447 136.746 225.617 136.877 225.64 137.063C225.662 137.248 225.53 137.416 225.345 137.438C225.066 137.472 224.794 137.487 224.529 137.487Z" fill="black"/>
<path fill-rule="evenodd" clip-rule="evenodd" d="M225.406 134.244C224.951 134.244 224.384 134.155 223.676 133.928L223.813 133.499C225.132 133.921 226.106 133.887 226.556 133.402C226.939 132.99 226.937 132.235 226.549 131.278C226.287 130.628 226.352 129.396 226.742 127.615C227.028 126.312 227.392 125.173 227.396 125.162L227.824 125.3C227.43 126.53 226.507 129.971 226.967 131.109C227.551 132.555 227.245 133.321 226.886 133.708C226.629 133.985 226.182 134.244 225.406 134.244Z" fill="black"/>
<mask id="mask1_523_2710" style="mask-type:alpha" maskUnits="userSpaceOnUse" x="216" y="122" width="9" height="3">
<path fill-rule="evenodd" clip-rule="evenodd" d="M216.543 122.75H224.148V124.931H216.543V122.75Z" fill="white"/>
</mask>
<g mask="url(#mask1_523_2710)">
<path fill-rule="evenodd" clip-rule="evenodd" d="M223.53 124.931C223.462 124.931 223.393 124.92 223.326 124.896C222.669 124.667 220.773 124.058 219.894 123.993C219.066 123.932 217.804 124.341 217.387 124.504C217.069 124.628 216.71 124.471 216.586 124.153C216.461 123.835 216.618 123.476 216.936 123.351C217.007 123.323 218.706 122.664 219.985 122.759C221.206 122.85 223.631 123.692 223.733 123.728C224.056 123.841 224.226 124.193 224.114 124.516C224.025 124.771 223.785 124.931 223.53 124.931Z" fill="black"/>
</g>
<path fill-rule="evenodd" clip-rule="evenodd" d="M233.939 127.044C233.815 127.044 233.69 127.005 233.582 126.927C233.238 126.675 232.176 125.992 231.403 125.863C230.579 125.725 228.684 125.881 228.023 125.952C227.691 125.988 227.393 125.748 227.357 125.417C227.321 125.085 227.561 124.787 227.892 124.751C227.996 124.74 230.446 124.478 231.603 124.671C232.818 124.875 234.237 125.909 234.297 125.953C234.566 126.15 234.624 126.528 234.426 126.797C234.308 126.958 234.125 127.044 233.939 127.044Z" fill="black"/>
<path fill-rule="evenodd" clip-rule="evenodd" d="M221.997 127.661C221.997 128.027 221.701 128.323 221.335 128.323C220.97 128.323 220.674 128.027 220.674 127.661C220.674 127.296 220.97 127 221.335 127C221.701 127 221.997 127.296 221.997 127.661Z" fill="black"/>
<path fill-rule="evenodd" clip-rule="evenodd" d="M230.462 128.413C230.462 128.779 230.165 129.075 229.8 129.075C229.435 129.075 229.139 128.779 229.139 128.413C229.139 128.048 229.435 127.752 229.8 127.752C230.165 127.752 230.462 128.048 230.462 128.413Z" fill="black"/>
<path fill-rule="evenodd" clip-rule="evenodd" d="M189.172 87.6837C196.035 93.0836 202.672 103.996 214.372 102.308C226.071 100.621 241.398 107.531 234.466 126.632C234.466 126.632 234.734 116.258 228.884 112.658C223.034 109.058 221.122 128.07 209.984 123.233C209.984 123.233 208.184 122.221 207.734 123.795C207.284 125.37 207.593 129.567 208.788 130.393C208.788 130.393 209.084 130.658 209.647 130.433C209.647 130.433 209.983 135.774 213.134 139.066C213.134 139.066 212.346 141.683 212.065 142.077L211.864 142.123C211.864 142.123 201.097 150.457 189.397 141.008C177.697 131.558 169.935 138.758 160.485 129.983C151.035 121.208 173.732 94.7413 167.91 88.4712C174.885 80.9338 185.811 85.0392 189.172 87.6837Z" fill="#C38741"/>
<path fill-rule="evenodd" clip-rule="evenodd" d="M223.816 126.823C223.816 128.917 222.119 130.614 220.025 130.614C217.932 130.614 216.234 128.917 216.234 126.823C216.234 124.729 217.932 123.032 220.025 123.032C222.119 123.032 223.816 124.729 223.816 126.823Z" fill="black"/>
<path fill-rule="evenodd" clip-rule="evenodd" d="M220.026 123.426C218.153 123.426 216.629 124.95 216.629 126.823C216.629 128.696 218.153 130.22 220.026 130.22C221.899 130.22 223.423 128.696 223.423 126.823C223.423 124.95 221.899 123.426 220.026 123.426ZM220.026 131.008C217.719 131.008 215.842 129.13 215.842 126.823C215.842 124.516 217.719 122.639 220.026 122.639C222.334 122.639 224.211 124.516 224.211 126.823C224.211 129.13 222.334 131.008 220.026 131.008Z" fill="black"/>
<path fill-rule="evenodd" clip-rule="evenodd" d="M234.382 127.847C234.382 129.941 232.685 131.638 230.592 131.638C228.498 131.638 226.801 129.941 226.801 127.847C226.801 125.754 228.498 124.057 230.592 124.057C232.685 124.057 234.382 125.754 234.382 127.847Z" fill="black"/>
<mask id="mask2_523_2710" style="mask-type:alpha" maskUnits="userSpaceOnUse" x="226" y="123" width="9" height="10">
<path fill-rule="evenodd" clip-rule="evenodd" d="M226.408 123.663H234.777V132.032H226.408V123.663Z" fill="white"/>
</mask>
<g mask="url(#mask2_523_2710)">
<path fill-rule="evenodd" clip-rule="evenodd" d="M230.593 124.451C228.72 124.451 227.196 125.974 227.196 127.848C227.196 129.721 228.72 131.245 230.593 131.245C232.466 131.245 233.99 129.721 233.99 127.848C233.99 125.974 232.466 124.451 230.593 124.451ZM230.593 132.032C228.285 132.032 226.408 130.155 226.408 127.848C226.408 125.54 228.285 123.663 230.593 123.663C232.9 123.663 234.777 125.54 234.777 127.848C234.777 130.155 232.9 132.032 230.593 132.032Z" fill="black"/>
</g>
<path fill-rule="evenodd" clip-rule="evenodd" d="M215.976 126.548L210.352 124.298L210.644 123.566L216.269 125.816L215.976 126.548Z" fill="black"/>
<path fill-rule="evenodd" clip-rule="evenodd" d="M226.655 127.811L223.705 127.483L223.792 126.7L226.742 127.029L226.655 127.811Z" fill="black"/>
<path fill-rule="evenodd" clip-rule="evenodd" d="M230.126 139.39C230.126 139.39 229.563 137.811 227.725 135.77C226.712 134.646 221.216 131.958 218.989 134.1C216.763 136.241 215.548 136.667 215.931 136.731C219.68 137.349 220.45 135.671 222.185 135.761C224.124 135.863 225.212 135.652 225.212 135.652C225.718 136.461 226.274 137.052 227.522 138.148C227.937 138.512 229.839 140.276 230.126 139.39Z" fill="#C38741"/>
<path fill-rule="evenodd" clip-rule="evenodd" d="M158.02 248.696L186.926 264.72L127.419 385.441L87.1763 363.134L158.02 248.696Z" fill="#DDB0C8"/>
<path fill-rule="evenodd" clip-rule="evenodd" d="M278.513 57.0761C335.381 88.5984 355.927 160.253 324.405 217.12C292.883 273.988 221.228 294.534 164.361 263.012C107.493 231.49 86.9466 159.836 118.469 102.968C149.991 46.1004 221.645 25.5538 278.513 57.0761ZM268.832 74.5406C221.61 48.3649 162.109 65.4265 135.933 112.649C109.758 159.871 126.819 219.372 174.041 245.548C221.264 271.723 280.765 254.662 306.94 207.439C333.116 160.217 316.054 100.716 268.832 74.5406Z" fill="#FCEBEC"/>
<path fill-rule="evenodd" clip-rule="evenodd" d="M324.665 321.759L328.715 359.693C328.715 359.693 289.305 369.171 274.936 356.775L273.478 323.38C273.478 323.38 290.541 322.84 324.665 321.759Z" fill="#D60000"/>
<path fill-rule="evenodd" clip-rule="evenodd" d="M307.458 272.373C307.458 272.373 307.873 281.503 313.199 284.725C318.031 287.649 307.794 304.616 296.782 303.604C290.753 303.05 289.341 286.566 289.341 286.566C289.341 286.566 294.208 285.625 292.41 278.203L307.458 272.373Z" fill="#7D4439"/>
<path fill-rule="evenodd" clip-rule="evenodd" d="M298.64 281.655C305.779 280.792 310.932 276.098 311.653 268.311C313.728 268.642 314.218 263.234 313.64 261.497C313.061 259.757 311.173 260.774 311.173 260.774C311.068 260.499 310.979 260.211 310.906 259.911C307.788 247.118 299.053 247.626 299.053 247.626C283.002 248.462 286.763 264.849 287.68 269.196C288.597 273.544 291.739 282.489 298.64 281.655Z" fill="#7D4439"/>
<path fill-rule="evenodd" clip-rule="evenodd" d="M274.905 333.923C277.273 332.959 280.324 329.906 283.975 324.851C286.683 321.102 288.73 317.587 288.75 317.552L288.361 317.326C288.28 317.465 280.214 331.275 274.735 333.506L274.905 333.923Z" fill="#864A56"/>
<mask id="mask3_523_2710" style="mask-type:alpha" maskUnits="userSpaceOnUse" x="270" y="284" width="69" height="70">
<path fill-rule="evenodd" clip-rule="evenodd" d="M338.84 284.252H270.9V353.631H338.84V284.252Z" fill="white"/>
</mask>
<g mask="url(#mask3_523_2710)">
<path fill-rule="evenodd" clip-rule="evenodd" d="M312.743 284.252C312.743 284.252 332.735 286.145 336.857 306.91C340.98 327.676 341.474 352.17 309.706 353.438C277.937 354.706 275.235 349.361 275.258 348.194C275.281 347.026 274.719 327.789 272.131 313.164C269.544 298.539 269.319 290.664 289.119 285.827C289.119 285.827 297.893 297.527 312.743 284.252Z" fill="#D60000"/>
</g>
<path fill-rule="evenodd" clip-rule="evenodd" d="M297.557 292.802L295.194 282.002C295.194 282.002 295.307 280.202 292.494 280.315C289.682 280.427 269.77 280.09 269.77 280.09C269.77 280.09 268.195 279.865 267.745 281.327C267.295 282.79 273.145 307.314 273.145 307.314C273.145 307.314 273.032 309.002 274.945 309.002C276.857 309.002 300.369 309.902 300.369 309.902L297.557 292.802Z" fill="#204EB2"/>
<mask id="mask4_523_2710" style="mask-type:alpha" maskUnits="userSpaceOnUse" x="267" y="280" width="34" height="30">
<path fill-rule="evenodd" clip-rule="evenodd" d="M300.436 280.022H267.665V309.961H300.436V280.022Z" fill="white"/>
</mask>
<g mask="url(#mask4_523_2710)">
<path fill-rule="evenodd" clip-rule="evenodd" d="M297.501 292.812L300.302 309.842C298.891 309.788 276.785 308.945 274.944 308.945C274.356 308.945 273.906 308.782 273.606 308.462C273.162 307.989 273.2 307.324 273.201 307.317L273.201 307.309L273.199 307.3C273.141 307.055 267.358 282.774 267.798 281.343C268.229 279.945 269.699 280.136 269.762 280.145C269.968 280.149 289.715 280.482 292.496 280.37C293.526 280.329 294.274 280.539 294.72 280.993C295.165 281.447 295.138 281.993 295.138 281.998L295.137 282.006L295.139 282.014L297.501 292.812ZM300.436 309.96L297.611 292.789L295.251 281.997C295.253 281.921 295.256 281.381 294.802 280.916C294.334 280.437 293.554 280.217 292.492 280.258C289.713 280.369 269.97 280.036 269.77 280.033C269.761 280.031 268.149 279.819 267.691 281.31C267.243 282.767 272.823 306.207 273.088 307.319C273.084 307.406 273.069 308.053 273.523 308.538C273.845 308.883 274.323 309.057 274.944 309.057C276.834 309.057 300.132 309.948 300.367 309.957L300.436 309.96Z" fill="black"/>
</g>
<path fill-rule="evenodd" clip-rule="evenodd" d="M296.768 293.59L294.405 282.79C294.405 282.79 294.518 280.99 291.705 281.103C288.893 281.215 268.981 280.878 268.981 280.878C268.981 280.878 267.406 280.653 266.956 282.115C266.506 283.578 272.356 308.102 272.356 308.102C272.356 308.102 272.243 309.79 274.156 309.79C276.068 309.79 299.58 310.69 299.58 310.69L296.768 293.59Z" fill="#56ACF6"/>
<path fill-rule="evenodd" clip-rule="evenodd" d="M309.008 310.524C309.008 310.524 302.465 303.068 300.681 299.872C298.896 296.677 298.896 294.813 299.045 293.348C299.194 291.883 299.194 290.152 298.004 289.886C296.815 289.62 296.666 290.286 296.517 291.883C296.369 293.481 296.517 295.079 293.841 294.147C291.165 293.215 284.622 290.951 283.878 292.815C283.135 294.679 284.771 294.946 284.771 294.946C284.771 294.946 283.581 295.079 283.284 296.011C282.986 296.943 283.284 297.609 284.176 298.008C285.068 298.408 285.514 298.541 285.514 298.541C285.514 298.541 283.73 298.274 283.284 299.606C282.838 300.937 283.581 301.603 284.325 301.869C284.325 301.869 283.368 302.023 283.135 303.068C282.986 303.734 283.878 304.133 284.919 304.532C286.326 305.072 290.57 305.198 294.138 307.461C297.707 309.725 306.331 324.504 310.643 329.031C314.955 333.558 319.268 321.841 319.268 321.841C319.268 321.841 313.915 315.051 309.008 310.524Z" fill="#7D4439"/>
<path fill-rule="evenodd" clip-rule="evenodd" d="M292.162 297.106L292.25 296.78L284.815 294.783L284.728 295.109L292.162 297.106Z" fill="black"/>
<path fill-rule="evenodd" clip-rule="evenodd" d="M292.162 300.568L292.25 300.242L284.815 298.245L284.728 298.571L292.162 300.568Z" fill="black"/>
<path fill-rule="evenodd" clip-rule="evenodd" d="M291.27 304.029L291.357 303.703L283.923 301.706L283.835 302.032L291.27 304.029Z" fill="black"/>
<mask id="mask5_523_2710" style="mask-type:alpha" maskUnits="userSpaceOnUse" x="263" y="289" width="16" height="45">
<path fill-rule="evenodd" clip-rule="evenodd" d="M278.057 289.543H263.581V333.977H278.057V289.543Z" fill="white"/>
</mask>
<g mask="url(#mask5_523_2710)">
<path fill-rule="evenodd" clip-rule="evenodd" d="M274.291 327.629C274.291 327.629 273.251 322.303 272.805 315.646C272.358 308.988 272.507 306.059 273.102 305.527C273.697 304.994 277.86 305.127 277.86 302.997C277.86 300.866 274.886 301.532 274.886 301.532C274.886 301.532 278.009 301 277.711 299.402C277.414 297.804 275.63 298.07 275.63 298.07C275.63 298.07 278.455 297.538 278.009 295.807C277.563 294.076 274.886 294.742 274.886 294.742C274.886 294.742 277.414 294.342 276.373 292.611C275.332 290.88 273.548 291.946 271.466 292.478C269.385 293.011 269.236 293.144 269.087 292.345C268.939 291.546 269.236 289.416 267.6 289.549C265.965 289.682 265.667 290.215 265.667 293.144C265.667 296.073 265.221 298.736 264.775 301.399C264.329 304.062 264.18 307.124 264.478 312.051C264.775 316.977 260.612 331.49 268.046 333.621C275.481 335.751 274.291 327.629 274.291 327.629Z" fill="#7D4439"/>
</g>
<path fill-rule="evenodd" clip-rule="evenodd" d="M271.148 302.446L275.521 301.507L275.45 301.177L271.077 302.116L271.148 302.446Z" fill="black"/>
<path fill-rule="evenodd" clip-rule="evenodd" d="M271.252 299.175L275.625 298.235L275.554 297.905L271.181 298.845L271.252 299.175Z" fill="black"/>
<path fill-rule="evenodd" clip-rule="evenodd" d="M271.061 295.656L275.434 294.717L275.363 294.387L270.99 295.326L271.061 295.656Z" fill="black"/>
<path fill-rule="evenodd" clip-rule="evenodd" d="M267.035 293.509L269.191 293.043L269.12 292.713L266.964 293.179L267.035 293.509Z" fill="black"/>
<path fill-rule="evenodd" clip-rule="evenodd" d="M455.535 375.934L452.385 387.505L458.122 389.433L461.722 378.071L455.535 375.934Z" fill="#F8D8B8"/>
<path fill-rule="evenodd" clip-rule="evenodd" d="M461.384 377.284L457.334 390.109L463.184 392.021L467.459 379.534L461.384 377.284Z" fill="#E4F9FF"/>
<path fill-rule="evenodd" clip-rule="evenodd" d="M467.909 378.184C467.909 378.184 467.01 378.184 465.885 378.746C464.76 379.309 458.91 387.071 462.285 391.909C462.285 391.909 462.847 392.246 463.522 392.359C464.197 392.471 465.435 394.496 467.572 395.621C467.572 395.621 467.122 394.158 468.809 389.771C470.497 385.384 480.172 362.097 484.784 361.872C484.784 361.872 482.984 360.409 477.472 366.709C472.265 372.66 467.909 378.184 467.909 378.184Z" fill="#2E2C36"/>
<path fill-rule="evenodd" clip-rule="evenodd" d="M467.571 395.621C467.571 395.621 469.484 398.883 472.521 398.321C475.559 397.758 476.44 394.976 477.462 392.655C478.484 390.333 488.824 364.797 488.824 364.797C488.824 364.797 487.685 361.12 484.568 361.833C480.959 362.659 477.584 370.309 477.584 370.309L467.796 390.558C467.796 390.558 466.784 393.483 467.571 395.621Z" fill="#E4F9FF"/>
<mask id="mask6_523_2710" style="mask-type:alpha" maskUnits="userSpaceOnUse" x="470" y="363" width="20" height="34">
<path fill-rule="evenodd" clip-rule="evenodd" d="M470.271 363.893H489.202V396.915H470.271V363.893Z" fill="white"/>
</mask>
<g mask="url(#mask6_523_2710)">
<path fill-rule="evenodd" clip-rule="evenodd" d="M470.271 394.496L482.759 367.721C482.759 367.721 485.346 363.109 487.934 364.009C490.521 364.909 488.496 369.071 487.596 372.334C486.696 375.596 477.696 394.721 475.334 396.521C473.684 397.778 470.384 395.733 470.271 394.496Z" fill="#2E2C36"/>
</g>
<path fill-rule="evenodd" clip-rule="evenodd" d="M463.522 392.359C463.522 392.359 462.284 389.096 463.747 385.159C465.209 381.221 467.909 378.184 467.909 378.184C467.909 378.184 465.063 377.292 462.661 383.026C460.259 388.759 460.709 391.796 463.522 392.584" fill="#3B3D4A"/>
<path d="M469.937 378.921L471.055 378.797L471.068 378.924L471.081 379.08C471.086 379.135 471.09 379.193 471.094 379.253C471.138 379.889 471.148 380.551 471.105 381.176C471.074 381.618 471.017 382.019 470.93 382.37C470.787 382.942 470.385 383.391 469.761 383.782L469.695 383.823C469.306 384.059 468.878 384.256 468.169 384.543L467.441 384.833C466.799 385.092 466.406 385.269 466.044 385.472C465.582 385.73 465.269 386.283 465.102 387.069C464.977 387.656 464.948 388.287 464.978 388.856L464.983 388.946C464.985 388.986 464.988 389.022 464.991 389.055L464.997 389.118L463.878 389.241L463.87 389.151C463.867 389.121 463.865 389.086 463.862 389.047L463.86 389.017C463.817 388.331 463.845 387.569 464.001 386.835C464.229 385.763 464.698 384.936 465.494 384.49C465.907 384.258 466.335 384.066 467.016 383.792L467.563 383.574C469.111 382.956 469.719 382.575 469.838 382.098C469.908 381.817 469.956 381.479 469.983 381.098C470.022 380.532 470.012 379.918 469.972 379.33L469.964 379.221C469.961 379.186 469.959 379.153 469.956 379.12L469.939 378.937L469.937 378.921Z" fill="white"/>
<path fill-rule="evenodd" clip-rule="evenodd" d="M325.051 391.54C325.051 391.54 326.286 396.477 326.855 397.363C327.424 398.249 337.995 403.01 341.368 402.685C344.742 402.359 350.413 400.212 351.157 398.596C351.9 396.98 350.899 391.99 349.831 391.072C348.762 390.154 325.051 391.54 325.051 391.54Z" fill="#E4F9FF"/>
<mask id="mask7_523_2710" style="mask-type:alpha" maskUnits="userSpaceOnUse" x="272" y="341" width="186" height="48">
<path fill-rule="evenodd" clip-rule="evenodd" d="M272.58 341.721H457.11V388.758H272.58V341.721Z" fill="white"/>
</mask>
<g mask="url(#mask7_523_2710)">
<path fill-rule="evenodd" clip-rule="evenodd" d="M274.4 348.654C274.4 348.654 266.088 379.871 284.988 384.708C303.888 389.546 325.008 385.172 348.212 377.621C367.224 371.433 366.436 364.346 390.624 371.321C407.931 376.312 452.497 388.758 452.497 388.758L457.11 375.258C457.11 375.258 390.624 340.947 364.187 341.734C354.285 342.029 323.104 348.37 323.104 348.37L274.4 348.654Z" fill="#E93737"/>
</g>
<mask id="mask8_523_2710" style="mask-type:alpha" maskUnits="userSpaceOnUse" x="276" y="304" width="57" height="66">
<path fill-rule="evenodd" clip-rule="evenodd" d="M276.852 304.322H332.35V369.409H276.852V304.322Z" fill="white"/>
</mask>
<g mask="url(#mask8_523_2710)">
<path fill-rule="evenodd" clip-rule="evenodd" d="M276.852 352.503C276.852 352.503 297.588 309.56 305.463 305.735C313.337 301.91 316.375 306.523 317.05 311.585C317.725 316.647 332.35 364.796 332.35 364.796L314.912 369.409L276.852 352.503Z" fill="#E93737"/>
</g>
<path d="M304.316 345.463L315.059 367.945L314.653 368.139L303.91 345.657L304.316 345.463Z" fill="black"/>
<path fill-rule="evenodd" clip-rule="evenodd" d="M329.825 364.843L331.143 369.158C325.904 369.153 321.755 371.538 320.621 372.106L319.438 367.875L329.825 364.843Z" fill="#F7C8A9"/>
<path fill-rule="evenodd" clip-rule="evenodd" d="M334.034 377.315L322.577 380.162L320.199 371.547C320.199 371.547 320.231 371.532 320.424 371.434C321.558 370.866 326.063 368.766 331.302 368.771" fill="#E4F9FF"/>
<path fill-rule="evenodd" clip-rule="evenodd" d="M330.254 394.419C330.254 394.419 338.281 397.725 343.718 395.631C349.155 393.537 350.406 392.142 350.375 392.004C350.344 391.866 341.347 384.102 339.576 383.342C337.804 382.583 333.241 379.265 331.426 382.137C329.611 385.008 326.906 387.211 327.255 389.306C327.604 391.4 330.254 394.419 330.254 394.419Z" fill="#353644"/>
<path fill-rule="evenodd" clip-rule="evenodd" d="M322.846 381.752C322.846 381.752 323.288 389.18 325.299 392.638L330.551 394.642C330.551 394.642 329.034 390.643 330.278 389.059C331.521 387.475 332.234 385.721 332.251 384.703C332.268 383.685 336.805 382.518 336.805 382.518C336.805 382.518 337.561 384.231 338.912 384.217C340.262 384.202 347.219 389.256 347.219 389.256C347.219 389.256 345.517 387.46 343.731 385.544C341.945 383.629 335.687 377.555 335.687 377.555L322.846 381.752Z" fill="#2C262B"/>
<path fill-rule="evenodd" clip-rule="evenodd" d="M322.246 378.737C322.246 378.737 321.127 379.912 321.838 381.02C322.549 382.128 324.939 381.475 327.219 380.846C329.499 380.217 334.961 378.87 335.361 378.088C335.762 377.306 335.037 375.624 333.572 375.263C333.572 375.263 334.003 376.665 333.394 377.033C332.785 377.4 323.251 380.125 322.847 379.87C322.444 379.615 322.246 378.737 322.246 378.737Z" fill="#3E454F"/>
<path fill-rule="evenodd" clip-rule="evenodd" d="M330.403 384.741C330.403 384.741 333.371 381.535 336.68 382.404C336.68 382.404 337.767 382.62 337.374 381.902C336.982 381.183 336.408 381.197 336.408 381.197C336.408 381.197 336.479 380.489 335.881 380.393C335.881 380.393 336.062 379.66 335.244 379.614C335.244 379.614 334.983 377.943 333.216 378.802C331.45 379.662 328.023 380.318 328.465 381.257C328.907 382.195 329.162 381.792 329.162 381.792C329.162 381.792 328.956 382.415 329.434 382.999C329.911 383.583 329.837 383.254 329.837 383.254C329.837 383.254 329.292 384.415 330.403 384.741Z" fill="white"/>
<path d="M328.748 382C328.748 382 329.417 381.388 330.515 381.141" stroke="black" stroke-width="1.57363"/>
<path d="M335.658 379.405C335.658 379.405 334.426 379.567 333.707 379.96" stroke="black" stroke-width="1.57363"/>
<path d="M336.934 381.168C336.934 381.168 335.238 381.115 334.494 381.398" stroke="black" stroke-width="1.57363"/>
<path d="M329.338 383.597C329.338 383.597 330.397 382.667 331.908 382.211" stroke="black" stroke-width="1.57363"/>
<path fill-rule="evenodd" clip-rule="evenodd" d="M300.941 273.717C300.941 273.717 301.217 275.49 298.769 276.159C296.321 276.827 295.162 276.666 295.055 275.518C295.055 275.518 295.278 274.216 295.854 274.081C296.43 273.946 297.084 274.178 297.084 274.178C297.084 274.178 297.56 273.327 298.181 273.321C298.802 273.315 300.122 273.859 300.941 273.717Z" fill="#CE4129"/>
<path fill-rule="evenodd" clip-rule="evenodd" d="M296.691 275.296C298.475 274.798 300.603 274.171 301.238 273.734C301.7 273.415 301.892 273.452 301.894 273.452C301.894 273.452 301.654 272.901 300.982 273.363C300.329 273.814 297.5 274.603 296.57 274.863C294.944 275.316 294.783 275.252 294.578 275.171L294.412 275.588C294.61 275.668 294.792 275.707 295.184 275.652C295.505 275.607 295.966 275.499 296.691 275.296Z" fill="black"/>
<path fill-rule="evenodd" clip-rule="evenodd" d="M298.067 282.068C299.625 282.068 301.236 281.613 302.392 281.193C303.872 280.655 304.946 280.056 304.957 280.05L304.792 279.756C304.75 279.779 300.577 282.092 297.242 281.682L297.201 282.017C297.485 282.052 297.775 282.068 298.067 282.068Z" fill="black"/>
<path d="M293.85 262.869L293.422 263.007L293.464 263.141C293.497 263.25 293.535 263.376 293.575 263.515C293.691 263.912 293.807 264.338 293.915 264.777C294.035 265.266 294.138 265.739 294.218 266.186L294.241 266.318C294.437 267.455 294.464 268.323 294.29 268.789L294.279 268.816C293.281 271.287 294.637 272.54 297.484 271.662L297.57 271.635L297.433 271.206C294.869 272.027 293.841 271.103 294.697 268.985C294.932 268.402 294.896 267.412 294.661 266.106C294.579 265.649 294.474 265.167 294.352 264.67C294.254 264.274 294.151 263.888 294.047 263.524L294.007 263.389C293.984 263.308 293.961 263.232 293.94 263.161L293.885 262.98L293.85 262.869Z" fill="black"/>
<path d="M304.959 280.083L304.739 279.69L304.658 279.734L304.585 279.773C304.473 279.832 304.346 279.897 304.205 279.966L304.144 279.996C303.669 280.228 303.144 280.459 302.584 280.675C301.296 281.172 300.023 281.511 298.839 281.621C298.303 281.67 297.794 281.672 297.318 281.62L297.223 281.61L297.168 282.056C297.705 282.122 298.278 282.125 298.881 282.069C300.111 281.954 301.422 281.605 302.745 281.095C303.318 280.874 303.855 280.638 304.341 280.401L304.524 280.31C304.603 280.271 304.676 280.233 304.744 280.198L304.871 280.131L304.959 280.083Z" fill="black"/>
<path fill-rule="evenodd" clip-rule="evenodd" d="M295.887 271.942C296.342 271.942 296.909 271.853 297.617 271.626L297.48 271.198C296.161 271.62 295.187 271.585 294.737 271.1C294.354 270.688 294.356 269.933 294.744 268.976C295.006 268.326 294.941 267.094 294.551 265.313C294.265 264.01 293.901 262.872 293.897 262.86L293.469 262.998C293.863 264.228 294.786 267.669 294.326 268.807C293.742 270.254 294.048 271.019 294.407 271.407C294.664 271.683 295.111 271.942 295.887 271.942Z" fill="black"/>
<path fill-rule="evenodd" clip-rule="evenodd" d="M298.945 265.863C299.027 265.863 299.109 265.834 299.173 265.774C299.178 265.77 299.734 265.276 300.538 265.306C301.369 265.337 301.921 265.743 301.926 265.748C302.075 265.859 302.286 265.83 302.398 265.682C302.51 265.533 302.482 265.323 302.335 265.21C302.306 265.188 301.617 264.671 300.562 264.632C299.477 264.593 298.748 265.249 298.717 265.277C298.58 265.403 298.57 265.616 298.697 265.754C298.763 265.826 298.854 265.863 298.945 265.863Z" fill="black"/>
<path fill-rule="evenodd" clip-rule="evenodd" d="M304.679 264.181C304.679 264.181 303.393 262.643 302.232 261.994C301.515 261.593 297.09 260.735 296.928 261.642C296.77 262.526 297.225 262.556 298.99 262.844C300.754 263.131 301.581 263.202 302.508 263.638C303.435 264.073 304.482 264.667 304.679 264.181Z" fill="black"/>
<path fill-rule="evenodd" clip-rule="evenodd" d="M287.611 265.264C287.611 265.264 287.448 264.331 287.672 263.722C287.897 263.113 290.675 260.579 291.49 260.799C292.785 261.15 292.319 261.77 290.679 262.873C289.361 263.76 288.835 264.101 288.338 264.726C287.658 265.579 287.709 265.402 287.611 265.264Z" fill="black"/>
<path fill-rule="evenodd" clip-rule="evenodd" d="M289.482 266.891C289.564 266.891 289.645 266.862 289.71 266.802C289.714 266.799 290.271 266.304 291.074 266.334C291.903 266.365 292.456 266.771 292.461 266.775C292.61 266.888 292.821 266.86 292.935 266.712C293.048 266.564 293.019 266.352 292.871 266.239C292.843 266.217 292.154 265.699 291.099 265.66C290.014 265.621 289.284 266.277 289.254 266.305C289.116 266.431 289.107 266.645 289.233 266.782C289.3 266.854 289.391 266.891 289.482 266.891Z" fill="black"/>
<path fill-rule="evenodd" clip-rule="evenodd" d="M311.248 260.974C311.248 260.974 310.235 257.036 302.192 253.268C295.567 250.164 288.017 254.955 287.229 256.192C286.649 257.105 286.104 245.505 298.367 242.805C308.765 240.516 317.21 251.749 313.723 261.761C313.723 261.761 313.273 260.636 311.248 260.974Z" fill="#878787"/>
<mask id="mask9_523_2710" style="mask-type:alpha" maskUnits="userSpaceOnUse" x="299" y="233" width="19" height="18">
<path fill-rule="evenodd" clip-rule="evenodd" d="M317.916 233.224H299.203V250.56H317.916V233.224Z" fill="white"/>
</mask>
<g mask="url(#mask9_523_2710)">
<path fill-rule="evenodd" clip-rule="evenodd" d="M300.41 236.021C297.873 239.543 299.464 245.027 303.965 248.269C308.466 251.511 314.171 251.285 316.708 247.763C319.246 244.24 317.654 238.757 313.154 235.514C308.653 232.272 302.948 232.499 300.41 236.021Z" fill="#878787"/>
</g>
<mask id="mask10_523_2710" style="mask-type:alpha" maskUnits="userSpaceOnUse" x="301" y="252" width="11" height="33">
<path fill-rule="evenodd" clip-rule="evenodd" d="M311.773 252.48H301.966V284.413H311.773V252.48Z" fill="white"/>
</mask>
<g mask="url(#mask10_523_2710)">
<path fill-rule="evenodd" clip-rule="evenodd" d="M309.728 254.618C309.728 254.618 312.845 261.929 310.368 266.601C307.89 271.273 313.633 280.145 311.124 284.413C311.124 284.413 311.283 280.895 309.018 276.411C306.753 271.927 305.729 270.068 307.144 266.606C308.56 263.145 304.367 253.949 301.966 252.48L309.728 254.618Z" fill="#878787"/>
</g>
<path fill-rule="evenodd" clip-rule="evenodd" d="M297.477 264.52C297.477 266.614 299.174 268.311 301.268 268.311C303.361 268.311 305.059 266.614 305.059 264.52C305.059 262.427 303.361 260.729 301.268 260.729C299.174 260.729 297.477 262.427 297.477 264.52Z" fill="black"/>
<path fill-rule="evenodd" clip-rule="evenodd" d="M301.267 261.123C303.14 261.123 304.664 262.647 304.664 264.52C304.664 266.394 303.14 267.917 301.267 267.917C299.394 267.917 297.87 266.394 297.87 264.52C297.87 262.647 299.394 261.123 301.267 261.123ZM301.267 268.705C303.574 268.705 305.451 266.828 305.451 264.52C305.451 262.213 303.574 260.336 301.267 260.336C298.959 260.336 297.082 262.213 297.082 264.52C297.082 266.828 298.959 268.705 301.267 268.705Z" fill="#E93737"/>
<path fill-rule="evenodd" clip-rule="evenodd" d="M286.911 265.545C286.911 267.638 288.608 269.335 290.701 269.335C292.795 269.335 294.492 267.638 294.492 265.545C294.492 263.451 292.795 261.754 290.701 261.754C288.608 261.754 286.911 263.451 286.911 265.545Z" fill="black"/>
<path fill-rule="evenodd" clip-rule="evenodd" d="M290.7 262.148C292.573 262.148 294.097 263.672 294.097 265.545C294.097 267.418 292.573 268.942 290.7 268.942C288.827 268.942 287.303 267.418 287.303 265.545C287.303 263.672 288.827 262.148 290.7 262.148ZM290.7 269.729C293.008 269.729 294.885 267.852 294.885 265.545C294.885 263.238 293.008 261.36 290.7 261.36C288.393 261.36 286.516 263.238 286.516 265.545C286.516 267.852 288.393 269.729 290.7 269.729Z" fill="#E93737"/>
<path fill-rule="evenodd" clip-rule="evenodd" d="M305.317 264.245L310.941 261.995L310.649 261.264L305.024 263.514L305.317 264.245Z" fill="#E93737"/>
<path fill-rule="evenodd" clip-rule="evenodd" d="M294.638 265.508L297.588 265.18L297.501 264.397L294.551 264.726L294.638 265.508Z" fill="#E93737"/>
</svg>
